<svg width="109" height="20" viewBox="0 0 109 20" fill="none" xmlns="http://www.w3.org/2000/svg">
<path d="M18.0004 14.5901C17.5149 15.6471 17.2826 16.1187 16.6563 17.0531C15.7837 18.3572 14.5522 19.9825 13.0286 19.9963C11.674 20.0084 11.3256 19.131 9.48715 19.1413C7.64867 19.1517 7.26514 20.0119 5.91048 19.9998C4.38692 19.9859 3.2205 18.5195 2.34788 17.2137C-0.0940396 13.5658 -0.34738 9.28403 1.15683 7.00927C2.22649 5.39086 3.91366 4.44434 5.50056 4.44434C7.08745 4.44434 8.13248 5.31486 9.4678 5.31486C10.8031 5.31486 11.5543 4.44434 13.421 4.44434C14.8337 4.44434 16.3291 5.19913 17.3952 6.50492C13.903 8.38415 14.4695 13.2826 17.9987 14.5918L18.0004 14.5901Z" fill="white"/>
<path d="M12.4711 2.99828C13.1756 2.22083 13.7104 1.12141 13.5151 0C12.3652 0.0675359 11.02 0.697348 10.2334 1.51877C9.5197 2.26481 8.93198 3.36894 9.16196 4.44324C10.4177 4.47622 11.7173 3.8307 12.4711 2.99828Z" fill="white"/>
<path d="M31.9984 3L28 16H29.8302L31.0229 12.0089H34.8926L36.1195 16H38L33.9855 3H31.9944H31.9984ZM32.9477 5.13778C33.0825 5.71778 33.2293 6.32 33.4163 6.97111L34.4944 10.4178H31.4292L32.4912 6.94889C32.6521 6.38667 32.8069 5.77778 32.9497 5.13778H32.9477Z" fill="white"/>
<path d="M44.9835 7.00433C43.6491 7.00433 42.5803 7.50815 41.8699 8.46391L41.7925 7.20542H40L40.0111 7.36544C40.0642 8.1482 40.0863 9.01314 40.0863 10.25V20H42.0448V15.4504C42.6533 16.1618 43.6226 16.5749 44.7224 16.5749C45.8222 16.5749 46.9221 16.1359 47.6899 15.3423C48.5486 14.4558 49 13.1821 49 11.6598C49 10.3149 48.6061 9.15153 47.8626 8.29741C47.1323 7.46058 46.1121 7 44.9835 7V7.00433ZM44.4945 8.58932C46.2405 8.58932 47.0216 10.17 47.0216 11.7355C47.0216 13.7552 46.0236 15.0115 44.4192 15.0115C43.3238 15.0115 42.3767 14.2828 42.1111 13.2362C42.0647 13.074 42.0425 12.8599 42.0425 12.6156V11.076C42.0425 10.9376 42.0735 10.7668 42.1045 10.6046C42.1134 10.5527 42.1244 10.5008 42.1333 10.4489C42.4254 9.35479 43.3946 8.58932 44.4945 8.58932Z" fill="white"/>
<path d="M55.9813 7.00433C54.6469 7.00433 53.5781 7.50815 52.8677 8.46391L52.7903 7.20542H51L51.0089 7.36544C51.062 8.15037 51.0841 9.01314 51.0841 10.25V20H53.0425V15.4504C53.6511 16.1618 54.6204 16.5749 55.7202 16.5749C56.82 16.5749 57.9198 16.1359 58.6899 15.3423C59.5463 14.4558 60 13.1821 60 11.6598C60 10.3149 59.6061 9.15153 58.8603 8.29741C58.1323 7.46058 57.1099 7 55.9813 7V7.00433ZM55.4945 8.58932C57.2405 8.58932 58.0216 10.17 58.0216 11.7355C58.0216 13.7552 57.0236 15.0115 55.4192 15.0115C54.3238 15.0115 53.3745 14.2828 53.1111 13.2362C53.0647 13.074 53.0425 12.8599 53.0425 12.6156V11.076C53.0425 10.9355 53.0735 10.7668 53.1045 10.6025C53.1134 10.5506 53.1244 10.4987 53.1333 10.4489C53.4254 9.35479 54.3946 8.58932 55.4945 8.58932Z" fill="white"/>
<path d="M70.6809 8.53943C68.8459 7.85023 68.2572 7.30964 68.2572 6.30815C68.2572 5.46604 68.9481 4.61531 70.4921 4.61531C71.7651 4.61531 72.5804 5.0439 72.8003 5.17743L72.967 5.27651L73.5224 3.68489L73.4135 3.62243C73.0847 3.43506 72.145 3 70.5498 3C68.0417 3 66.291 4.43439 66.291 6.48906C66.291 8.14529 67.3885 9.30401 69.7434 10.1332C71.4118 10.7384 72.0339 11.3565 72.0339 12.4183C72.0339 13.6201 71.0764 14.3653 69.5346 14.3653C68.5304 14.3653 67.4974 14.081 66.6998 13.5857L66.5287 13.4801L66 15.1083L66.0978 15.1708C66.8398 15.6511 68.2372 16 69.4213 16C72.8003 16 74 14.0013 74 12.2913C74 10.5812 73.0403 9.4397 70.6831 8.53728L70.6809 8.53943Z" fill="white"/>
<path d="M79.5086 5L77.4837 5.56225V7.07602H76V8.53211H77.4837V12.9951C77.4837 14.0743 77.717 14.8302 78.1975 15.308C78.6594 15.7549 79.3686 16 80.1944 16C80.9759 16 81.5288 15.8641 81.79 15.7817L81.9067 15.7446L81.8087 14.2844L81.6104 14.338C81.3491 14.408 81.0809 14.4368 80.6493 14.4368C79.8491 14.4368 79.5086 13.9899 79.5086 12.9416V8.53211H82V7.07602H79.5086V5Z" fill="white"/>
<path d="M88.064 7C85.3773 7 83.5 8.87847 83.5 11.5681C83.5 14.2577 85.3165 16 87.9186 16H87.936C90.1344 16 92.5 14.5647 92.5 11.4136C92.5 10.1328 92.0768 9.03298 91.276 8.22995C90.4708 7.42489 89.3597 7 88.064 7ZM88.0076 8.42105C89.7351 8.42105 90.5229 9.99865 90.5229 11.4665C90.5229 13.2697 89.4486 14.5789 87.9707 14.5789H87.9512C86.4949 14.5789 85.4359 13.2921 85.4359 11.5173C85.4359 9.97628 86.2302 8.42105 88.0054 8.42105H88.0076Z" fill="white"/>
<path d="M99 7.08512L98.8797 7.05813C98.7027 7.01868 98.5574 7 98.3804 7C97.3295 7 96.3854 7.56678 95.8611 8.48028L95.8021 7.19515H94L94.0113 7.34879C94.0658 8.07543 94.0862 8.89343 94.0862 9.99585L94.0681 16H96.0767V11.3163C96.0767 11.0609 96.0949 10.8201 96.1312 10.6042C96.3581 9.47889 97.1866 8.75225 98.2442 8.75225C98.4507 8.75225 98.6119 8.76678 98.7821 8.78339L98.9977 8.80415V7.08927L99 7.08512Z" fill="white"/>
<path d="M104.761 7C102.252 7 100.5 8.91303 100.5 11.6555C100.5 14.398 102.244 16 104.942 16C106.36 16 107.348 15.7032 107.925 15.4531L108.038 15.4043L107.676 14.0626L107.518 14.1236C107.005 14.3228 106.322 14.5261 105.157 14.5261C104.337 14.5261 102.45 14.2679 102.333 11.9178L108.417 11.9361L108.443 11.8202C108.481 11.6372 108.5 11.3912 108.5 11.07C108.5 9.19358 107.52 7 104.761 7ZM104.635 8.3682C105.21 8.3682 105.674 8.53693 106.019 8.87237C106.562 9.39892 106.656 10.1755 106.669 10.5475H102.37C102.544 9.5087 103.226 8.3682 104.635 8.3682Z" fill="white"/>
</svg>
