<svg width="115" height="21" viewBox="0 0 115 21" fill="none" xmlns="http://www.w3.org/2000/svg">
<path d="M0 0.0742188V10.3915V20.7087L10.4065 10.3915L0 0.0742188Z" fill="white"/>
<path d="M13.2003 7.62184L9.0005 5.19596L0 0V0.0746703L10.4065 10.3919L13.2003 7.62184Z" fill="white"/>
<path d="M0 20.7089V20.7853L9.0005 15.5876L13.2003 13.1635L10.4065 10.3916L0 20.7089Z" fill="white"/>
<path d="M13.2 7.62207L10.4062 10.3922L13.2 13.1641L18.0008 10.3922L13.2 7.62207Z" fill="white"/>
<path d="M91.2435 14.6826C90.6939 14.6826 90.1955 14.5804 89.7404 14.3784C89.288 14.1765 88.9071 13.8646 88.5978 13.4454H88.5058C88.5671 13.9362 88.5978 14.404 88.5978 14.8436V18.3099H87.3223V6.1065H88.3601L88.5365 7.25935H88.5978C88.925 6.79923 89.3084 6.46437 89.743 6.25987C90.1776 6.05537 90.6786 5.95312 91.2409 5.95312C92.358 5.95312 93.2195 6.334 93.8278 7.09831C94.4337 7.86262 94.7379 8.93367 94.7379 10.3115C94.7379 11.6893 94.4285 12.7706 93.8125 13.5349C93.1939 14.3017 92.3376 14.6826 91.2409 14.6826H91.2435ZM91.0595 7.03696C90.198 7.03696 89.5769 7.27469 89.1934 7.7527C88.81 8.22816 88.6106 8.98736 88.6004 10.0277V10.3115C88.6004 11.495 88.7972 12.3411 89.1934 12.8524C89.5871 13.361 90.221 13.6167 91.0901 13.6167C91.8186 13.6167 92.3887 13.3227 92.8002 12.7322C93.2118 12.1443 93.4188 11.3314 93.4188 10.2961C93.4188 9.26087 93.2118 8.44032 92.8002 7.87796C92.3887 7.31559 91.8059 7.03696 91.0595 7.03696Z" fill="white"/>
<path d="M97.6935 14.5293H96.418V2.57129H97.6935V14.5293Z" fill="white"/>
<path d="M105.029 14.5289L104.776 13.3301H104.715C104.295 13.8592 103.876 14.2145 103.457 14.4011C103.04 14.5877 102.519 14.6823 101.893 14.6823C101.057 14.6823 100.402 14.4676 99.9294 14.0356C99.4565 13.6036 99.2188 12.9926 99.2188 12.2002C99.2188 10.5003 100.579 9.6082 103.298 9.5264L104.727 9.48039V8.95892C104.727 8.29686 104.584 7.80862 104.301 7.49421C104.017 7.17979 103.562 7.02131 102.935 7.02131C102.233 7.02131 101.44 7.23603 100.553 7.66803L100.162 6.69156C100.576 6.46661 101.031 6.29023 101.527 6.16242C102.02 6.03461 102.516 5.9707 103.015 5.9707C104.019 5.9707 104.763 6.19309 105.246 6.64043C105.729 7.08521 105.972 7.80096 105.972 8.7851V14.534H105.026L105.029 14.5289ZM102.148 13.6291C102.943 13.6291 103.564 13.4118 104.019 12.9773C104.472 12.5427 104.699 11.9318 104.699 11.147V10.3853L103.424 10.439C102.409 10.4748 101.678 10.6332 101.23 10.9119C100.783 11.1905 100.558 11.6251 100.558 12.2155C100.558 12.6757 100.696 13.0284 100.977 13.2687C101.256 13.509 101.647 13.6291 102.151 13.6291H102.148Z" fill="white"/>
<path d="M106.713 6.10645H108.08L109.926 10.9096C110.33 12.0062 110.583 12.7986 110.68 13.2843H110.741C110.808 13.0236 110.949 12.5762 111.161 11.9423C111.373 11.3083 112.068 9.36562 113.247 6.10645H114.614L110.995 15.6974C110.637 16.6457 110.217 17.318 109.737 17.7142C109.259 18.1104 108.671 18.3098 107.973 18.3098C107.585 18.3098 107.199 18.2664 106.82 18.1795V17.157C107.101 17.2183 107.418 17.249 107.766 17.249C108.643 17.249 109.267 16.7582 109.642 15.7741L110.11 14.5752L106.713 6.10645Z" fill="white"/>
<path d="M67.6111 6.88882C68.015 7.22369 68.8611 7.92921 68.8611 9.26866C68.8611 10.6081 68.1223 11.1884 67.381 11.7712C67.151 11.9987 66.8877 12.2467 66.8877 12.6352C66.8877 13.0237 67.151 13.2334 67.3453 13.3918L67.9792 13.8852C68.7537 14.537 69.4592 15.1377 69.4592 16.3519C69.4592 18.0084 67.8565 19.6801 64.8274 19.6801C62.2712 19.6801 61.0391 18.4659 61.0391 17.1597C61.0391 16.5258 61.356 15.6285 62.3964 15.0099C63.4879 14.3402 64.968 14.2533 65.7604 14.1996C65.5124 13.8826 65.2313 13.5478 65.2313 13.0033C65.2313 12.7042 65.3207 12.5278 65.4076 12.3157C65.2134 12.3336 65.0191 12.3515 64.8427 12.3515C62.9767 12.3515 61.9184 10.9583 61.9184 9.58563C61.9184 8.77531 62.2891 7.87552 63.0457 7.22369C64.0503 6.39547 65.2492 6.25488 66.2001 6.25488H69.8273L68.7 6.88882H67.6085H67.6111ZM66.3611 14.7108C66.2205 14.693 66.1311 14.693 65.9572 14.693C65.7987 14.693 64.8453 14.7287 64.1065 14.9767C63.718 15.1173 62.5907 15.5391 62.5907 16.7916C62.5907 18.0442 63.8074 18.9414 65.6914 18.9414C67.381 18.9414 68.2808 18.1285 68.2808 17.037C68.2808 16.1372 67.698 15.6618 66.3611 14.7108ZM66.8724 11.3622C67.2762 10.9558 67.312 10.3934 67.312 10.0764C67.312 8.80854 66.5554 6.83514 65.0932 6.83514C64.6357 6.83514 64.1423 7.06265 63.8586 7.41796C63.5595 7.78861 63.47 8.26407 63.47 8.72163C63.47 9.9026 64.1576 11.8581 65.6735 11.8581C66.1132 11.8581 66.5886 11.6459 66.8724 11.3648V11.3622Z" fill="white"/>
<path d="M56.5185 14.4302C53.722 14.4302 52.2266 12.2497 52.2266 10.2789C52.2266 7.97573 54.1079 6.00488 56.7817 6.00488C59.4555 6.00488 60.9842 8.02685 60.9842 10.1562C60.9842 12.2855 59.384 14.4302 56.5159 14.4302H56.5185ZM58.7168 13.0064C59.1386 12.444 59.2459 11.7385 59.2459 11.0534C59.2459 9.50434 58.5072 6.54936 56.3267 6.54936C55.7465 6.54936 55.1662 6.77942 54.7444 7.14751C54.0594 7.76356 53.9341 8.53554 53.9341 9.29473C53.9341 11.0355 54.7956 13.901 56.9249 13.901C57.61 13.901 58.3155 13.5687 58.7168 13.0064Z" fill="white"/>
<path d="M46.9872 14.4302C44.1907 14.4302 42.6953 12.2497 42.6953 10.2789C42.6953 7.97573 44.5767 6.00488 47.2505 6.00488C49.9243 6.00488 51.4529 8.02685 51.4529 10.1562C51.4529 12.2855 49.8527 14.4302 46.9846 14.4302H46.9872ZM49.1855 13.0064C49.6073 12.444 49.7147 11.7385 49.7147 11.0534C49.7147 9.50434 48.9759 6.54936 46.7955 6.54936C46.2152 6.54936 45.635 6.77942 45.2132 7.14751C44.5281 7.76356 44.4029 8.53554 44.4029 9.29473C44.4029 11.0355 45.2643 13.901 47.3936 13.901C48.0787 13.901 48.7817 13.5687 49.1881 13.0064H49.1855Z" fill="white"/>
<path d="M41.3509 14.1543L38.8228 14.7371C37.7978 14.8956 36.8775 15.0362 35.9062 15.0362C31.0238 15.0362 29.168 11.4472 29.168 8.63539C29.168 5.20495 31.8034 2.02246 36.3126 2.02246C37.2686 2.02246 38.1863 2.16305 39.0171 2.39311C40.3437 2.76376 40.9624 3.22388 41.3509 3.48973L39.8836 4.88542L39.265 5.02602L39.7073 4.31794C39.1065 3.73513 38.0099 2.6564 35.924 2.6564C33.1301 2.6564 31.0263 4.77806 31.0263 7.87364C31.0263 11.1967 33.4317 14.3281 37.2865 14.3281C38.4189 14.3281 39.0017 14.098 39.5334 13.8859V11.0382L36.8647 11.1788L38.2783 10.4171H42.0283L41.5682 10.8593C41.4429 10.9667 41.4276 11.0025 41.3918 11.143C41.3739 11.3015 41.356 11.8153 41.356 11.9917V14.1492L41.3509 14.1543Z" fill="white"/>
<path d="M73.1984 13.6451C72.6156 13.5914 72.4929 13.4866 72.4929 12.7964V2.78883C72.4955 2.75048 72.498 2.71214 72.5032 2.6738C72.5747 2.05519 72.7511 1.94783 73.3007 1.63086H70.77L69.4434 2.26736H70.7956V13.185C70.7956 13.5377 70.724 13.5914 70.3176 14.1205H73.449L74.1033 13.732C73.8043 13.6962 73.5026 13.6783 73.201 13.6425L73.1984 13.6451Z" fill="white"/>
<path d="M80.3948 13.8092C80.203 13.914 80.0088 14.0392 79.8171 14.1261C79.2368 14.3894 78.6386 14.461 78.1121 14.461C77.5523 14.461 76.6729 14.4252 75.7757 13.7759C74.5308 12.8966 73.9863 11.3859 73.9863 10.0694C73.9863 7.34704 76.2 6.0127 78.0073 6.0127C78.6386 6.0127 79.2905 6.17118 79.8171 6.50349C80.6938 7.0812 80.9239 7.83783 81.044 8.24172L76.9183 9.91093L75.5661 10.0157C76.0032 12.2448 77.5139 13.5433 79.1831 13.5433C80.0778 13.5433 80.7296 13.2289 81.3252 12.9298L80.3948 13.8066V13.8092ZM78.746 8.57403C79.0783 8.45133 79.2547 8.34652 79.2547 8.10113C79.2547 7.39817 78.4648 6.5904 77.5165 6.5904C76.8135 6.5904 75.4971 7.13488 75.4971 9.03159C75.4971 9.33067 75.5328 9.64508 75.5507 9.96205L78.746 8.57403Z" fill="white"/>
<path d="M82.0924 6.12991V7.28787H81.9518V6.12991H81.5684V6.00977H82.4758V6.12991H82.0924Z" fill="white"/>
<path d="M83.6719 7.2908V6.12006H83.6643L83.3064 7.2908H83.1965L82.8361 6.12006H82.8309V7.2908H82.7031V6.0127H82.923L83.2476 7.04541H83.2527L83.5722 6.0127H83.7946V7.2908H83.6668H83.6719Z" fill="white"/>
</svg>
